<svg width="71" height="70" viewBox="0 0 71 70" fill="none" xmlns="http://www.w3.org/2000/svg">
<rect x="0.25" width="70" height="70" rx="35" fill="#8FC74F"/>
<path d="M30.6039 47.1162H28.0328V52.8773H30.6039V47.1162Z" fill="white"/>
<path d="M35.9117 43.7168H33.3406V52.8924H35.9117V43.7168Z" fill="white"/>
<path d="M41.2192 40.3022H38.648V52.8923H41.2192V40.3022Z" fill="white"/>
<path d="M57.1873 27.8776L59.9539 17.5438L49.6243 20.3115L52.6014 23.2898L41.6402 34.2554L41.8808 34.496C40.2118 33.6086 38.3474 33.037 36.3777 32.8866V18.2658H40.5877L35.25 9L29.9123 18.2658H34.1223V32.8866C32.1376 33.052 30.2731 33.6086 28.6192 34.496L28.8598 34.2554L17.8986 23.2898L20.8757 20.3115L10.5461 17.5438L13.3127 27.8776L16.2898 24.8993L26.9502 35.564C23.4468 38.1211 21.1614 42.2577 21.1614 46.9207C21.1614 54.6823 27.4765 60.9999 35.235 60.9999C42.9935 60.9999 49.3085 54.6823 49.3085 46.9207C49.3085 42.2577 47.0231 38.1362 43.5197 35.564L54.1801 24.8993L57.1573 27.8776H57.1873ZM47.0682 46.9207C47.0682 53.4338 41.7756 58.7436 35.25 58.7436C28.7244 58.7436 23.4318 53.4338 23.4318 46.9207C23.4318 40.4075 28.7395 35.0977 35.25 35.0977C41.7605 35.0977 47.0682 40.4075 47.0682 46.9207Z" fill="white"/>
</svg>
