<svg width="71" height="70" viewBox="0 0 71 70" fill="none" xmlns="http://www.w3.org/2000/svg">
<rect x="0.25" width="70" height="70" rx="35" fill="#8FC74F"/>
<path d="M41.7163 13.8647V7.5L28.8007 14.965L41.7163 22.43V16.5054C50.2817 19.2477 56.4771 27.2713 56.4771 36.7168C56.4771 48.4307 46.9639 57.9609 35.25 57.9609C23.5362 57.9609 14.0229 48.4307 14.0229 36.7168C14.0229 29.4042 18.2717 22.3962 23.9255 18.6044L21.9111 17.0809C15.6141 21.3467 11.4838 28.5578 11.4838 36.7168C11.4838 49.8356 22.1481 60.5 35.25 60.5C48.3519 60.5 59.0163 49.8356 59.0163 36.7168C59.0163 25.8494 51.6866 16.6916 41.7163 13.8647Z" fill="white"/>
<path d="M18.9658 33.433C18.9658 37.5463 22.3005 40.8811 26.4139 40.8811C30.5273 40.8811 33.862 37.5463 33.862 33.433H26.2277V25.9849C22.199 26.0864 18.9658 29.3873 18.9658 33.433Z" fill="white"/>
<path d="M29.156 23.124H28.9698V30.5721H36.6041C36.6041 26.4587 33.2694 23.124 29.156 23.124Z" fill="white"/>
<path d="M38.5001 40.4238H34.4883V49.6155H38.5001V40.4238Z" fill="white"/>
<path d="M46.7776 30.0308H42.7657V49.6328H46.7776V30.0308Z" fill="white"/>
</svg>
