<svg width="71" height="70" viewBox="0 0 71 70" fill="none" xmlns="http://www.w3.org/2000/svg">
<rect x="0.25" width="70" height="70" rx="35" fill="#8FC74F"/>
<path d="M48.8236 33.5017C51.7018 33.5017 54.047 31.1653 54.047 28.2582C54.047 25.3511 51.7195 23.0146 48.8236 23.0146C45.9277 23.0146 43.6003 25.3511 43.6003 28.2582C43.6003 31.1653 45.9277 33.5017 48.8236 33.5017ZM48.8236 25.7078C50.2272 25.7078 51.382 26.8492 51.382 28.276C51.382 29.7028 50.2449 30.8443 48.8236 30.8443C47.4023 30.8443 46.2652 29.7028 46.2652 28.276C46.2652 26.8492 47.4023 25.7078 48.8236 25.7078Z" fill="white"/>
<path d="M48.8236 33.8943C46.585 33.8943 44.5063 34.572 42.783 35.7313C40.6688 34.1618 38.0749 33.2522 35.25 33.2522C32.4251 33.2522 29.8312 34.1618 27.717 35.7313C25.9937 34.572 23.915 33.8943 21.6764 33.8943C15.6358 33.8943 10.75 38.7989 10.75 44.8629C10.75 45.1839 10.9277 45.4871 11.283 45.7547C11.9404 46.2897 13.2373 46.7713 14.9074 47.1101C16.7551 47.4847 19.118 47.7165 21.6764 47.7165C22.3871 47.7165 23.0799 47.6987 23.7551 47.663H23.7728C24.6256 48.1089 25.8338 48.5013 27.2906 48.7866C29.4759 49.2325 32.2475 49.5 35.25 49.5C38.2525 49.5 40.9886 49.2325 43.1739 48.7866C44.6485 48.4834 45.8566 48.1089 46.7094 47.663C47.4023 47.6987 48.0952 47.7165 48.8236 47.7165C51.3642 47.7165 53.7094 47.4847 55.5749 47.1101C57.2449 46.7713 58.5241 46.3075 59.1992 45.7725C59.5546 45.4871 59.75 45.2018 59.75 44.8807C59.75 38.7989 54.8464 33.8943 48.8236 33.8943ZM15.4226 44.4884C14.4987 44.2922 13.8591 44.096 13.4505 43.9355C13.9302 39.7977 17.4302 36.5695 21.6764 36.5695C23.1155 36.5695 24.4835 36.9441 25.6561 37.604C23.8617 39.6194 22.6891 42.1876 22.4581 45.0234C22.2094 45.0413 21.9429 45.0413 21.6764 45.0413C19.4023 45.0413 17.1815 44.8451 15.4226 44.4884ZM35.25 46.8248C33.5799 46.8248 31.9454 46.7356 30.453 46.5751C29.5114 46.4681 28.6231 46.3254 27.8236 46.1649C26.4733 45.8973 25.6028 45.5763 25.1053 45.3444C25.1231 45.1839 25.1231 45.0413 25.1586 44.8807C25.4074 42.7227 26.349 40.7786 27.7348 39.2448C28.3388 38.6028 29.0317 38.0142 29.7779 37.5326C31.3591 36.516 33.2424 35.9275 35.25 35.9275C37.2576 35.9275 39.1409 36.516 40.7043 37.5326C41.4683 38.0142 42.1612 38.6028 42.7652 39.2627C44.1332 40.7786 45.0571 42.7227 45.3236 44.8807C45.3414 45.0413 45.3591 45.1839 45.3769 45.3444C44.8972 45.5763 44.0089 45.8795 42.6409 46.1649C41.8414 46.3254 40.953 46.4681 40.0292 46.5572C38.5368 46.7356 36.9023 46.8248 35.25 46.8248ZM55.0419 44.4884C53.3008 44.8451 51.0799 45.0413 48.8236 45.0413C48.5571 45.0413 48.2906 45.0413 48.0241 45.0234C47.7931 42.1876 46.6206 39.6194 44.8439 37.604C46.0165 36.9441 47.3668 36.5695 48.8236 36.5695C53.052 36.5695 56.552 39.7799 57.0317 43.9355C56.6409 44.0782 56.019 44.2922 55.0419 44.4884Z" fill="white"/>
<path d="M21.6586 33.5017C24.5368 33.5017 26.882 31.1653 26.882 28.2582C26.882 25.3511 24.5546 23.0146 21.6586 23.0146C18.7627 23.0146 16.4353 25.3511 16.4353 28.2582C16.4353 31.1653 18.7627 33.5017 21.6586 33.5017ZM21.6586 25.7078C23.0622 25.7078 24.217 26.8492 24.217 28.276C24.217 29.7028 23.0799 30.8443 21.6586 30.8443C20.2373 30.8443 19.1002 29.7028 19.1002 28.276C19.1002 26.8492 20.2373 25.7078 21.6586 25.7078Z" fill="white"/>
<path d="M35.25 32.8063C38.6256 32.8063 41.3794 30.0597 41.3794 26.6531C41.3794 23.2466 38.6434 20.5 35.25 20.5C31.8566 20.5 29.1205 23.2466 29.1205 26.6531C29.1205 30.0597 31.8566 32.8063 35.25 32.8063ZM35.25 23.1753C37.151 23.1753 38.7145 24.7269 38.7145 26.6531C38.7145 28.5793 37.1688 30.131 35.25 30.131C33.3312 30.131 31.7855 28.5793 31.7855 26.6531C31.7855 24.7269 33.3312 23.1753 35.25 23.1753Z" fill="white"/>
</svg>
